<svg xmlns="http://www.w3.org/2000/svg" width="30" height="26" fill="currentColor" viewBox="0 0 30 26">
  <path fill-rule="evenodd" d="M26.25 3.714h-2.813L22.5 1.857C21.948.777 21.66 0 20.625 0H9.375C8.34 0 7.997.886 7.5 1.857l-.938 1.857H3.75C1.68 3.714 0 5.377 0 7.43v14.857C0 24.336 1.68 26 3.75 26h22.5c2.07 0 3.75-1.663 3.75-3.714V7.429c0-2.052-1.68-3.715-3.75-3.715ZM15 22.286c-4.142 0-7.5-3.326-7.5-7.429 0-4.102 3.358-7.428 7.5-7.428 4.142 0 7.5 3.326 7.5 7.428 0 4.103-3.358 7.429-7.5 7.429Zm0-13c-3.106 0-5.625 2.495-5.625 5.571 0 3.076 2.52 5.572 5.625 5.572 3.106 0 5.625-2.495 5.625-5.572 0-3.076-2.52-5.571-5.625-5.571Z" clip-rule="evenodd"/>
</svg>
