<svg width="30" height="30" viewBox="0 0 30 30" fill="none" xmlns="http://www.w3.org/2000/svg">
    <path d="M28.1279 29.1577C28.1092 28.9107 27.6601 23.0767 26.9036 20.2492C25.4306 14.7433 23.1135 11.2702 19.831 9.65074V6.86672C20.266 5.39801 20.5279 4.45072 20.6088 4.05281C20.916 2.54203 20.7968 1.51758 20.2338 0.828574C19.7852 0.279551 19.0907 0.00128906 18.1697 0.00128906C17.4013 0.00128906 16.5799 0.265078 15.9199 0.477129C15.5981 0.58043 15.1578 0.721875 15.0139 0.721816C15.0134 0.721816 15.0128 0.721816 15.0122 0.721816C14.874 0.720703 14.4509 0.584473 14.142 0.485039C13.471 0.268945 12.636 0 11.8294 0C10.8995 0 10.2033 0.272578 9.76025 0.810234C9.20062 1.48922 9.08607 2.48625 9.38888 4.04297C9.46171 4.41732 9.68941 5.28527 10.0656 6.62291C10.0493 6.68625 10.0407 6.75205 10.0407 6.81902V9.73377C6.82236 11.3752 4.5447 14.8283 3.08865 20.2705C2.33197 23.0986 1.89052 28.9124 1.87207 29.1586C1.85578 29.3757 1.93078 29.59 2.07896 29.7496C2.22709 29.9092 2.43509 29.9999 2.65289 29.9999H27.3472C27.5651 29.9999 27.7732 29.9091 27.9214 29.7492C28.0695 29.5894 28.1444 29.375 28.1279 29.1577ZM10.9686 1.80621C11.1 1.64678 11.3896 1.56598 11.8294 1.56598C12.39 1.56598 13.0656 1.78359 13.6618 1.97566C14.1983 2.1484 14.6219 2.28486 15 2.28785C15.0039 2.28785 15.0079 2.28785 15.0118 2.28785C15.4031 2.28785 15.8648 2.13955 16.3986 1.96816C16.9836 1.78031 17.6466 1.56732 18.1696 1.56732C18.5979 1.56732 18.8844 1.65223 19.0211 1.81963C19.1538 1.98193 19.337 2.44752 19.074 3.74104C19.0256 3.97928 18.8638 4.61273 18.3758 6.26496L16.9537 6.91354L14.9356 7.83387L11.6056 6.31518C11.1301 4.62885 10.9727 3.98473 10.9259 3.74396C10.6678 2.41623 10.8419 1.96002 10.9686 1.80621ZM18.265 8.03672V10.1503V10.8657L15.2606 9.49553C15.2371 9.48481 15.2131 9.47572 15.1888 9.4674C15.1819 9.465 15.1748 9.46301 15.1677 9.46084C15.1574 9.45762 15.1472 9.45393 15.1369 9.45123C15.1474 9.44842 15.1578 9.44473 15.1685 9.44145C15.175 9.43939 15.1817 9.43752 15.1883 9.43523C15.2127 9.42691 15.2369 9.41772 15.2607 9.40688L18.265 8.03672ZM14.7345 9.45129C14.7245 9.45393 14.7147 9.4575 14.7047 9.46055C14.6974 9.46283 14.6899 9.465 14.6824 9.46752C14.6582 9.47572 14.6343 9.48492 14.6108 9.49553L11.6065 10.8656V10.2259V8.03678L14.6108 9.40693C14.6346 9.41783 14.659 9.42697 14.6835 9.43535C14.6896 9.4374 14.6958 9.43916 14.7019 9.44109C14.7128 9.44449 14.7235 9.44836 14.7345 9.45129ZM3.50367 28.4338C3.65548 26.706 4.04666 22.7488 4.6013 20.6754C5.81982 16.1211 7.60587 13.1157 10.0406 11.5382V12.0834C10.0406 12.3497 10.1761 12.5979 10.4001 12.742C10.4022 12.7434 10.4045 12.7442 10.4066 12.7455C10.4346 12.7632 10.4635 12.779 10.4932 12.7928C10.5049 12.7982 10.5169 12.8023 10.5288 12.8071C10.5496 12.8156 10.5703 12.8238 10.5916 12.8304C10.6054 12.8347 10.6194 12.8379 10.6334 12.8413C10.6534 12.8464 10.6735 12.851 10.6939 12.8544C10.7085 12.8568 10.723 12.8586 10.7377 12.8603C10.7579 12.8626 10.7782 12.864 10.7986 12.8647C10.807 12.8649 10.8152 12.8664 10.8236 12.8664C10.8317 12.8664 10.8397 12.8654 10.8478 12.865C10.859 12.8647 10.8701 12.8641 10.8813 12.8633C10.901 12.8619 10.9206 12.8596 10.9403 12.8566C10.951 12.8549 10.9617 12.8535 10.9724 12.8514C10.9936 12.8473 11.0147 12.8419 11.0357 12.836C11.0443 12.8336 11.0529 12.8317 11.0615 12.829C11.091 12.8196 11.1202 12.8088 11.1486 12.7958L14.9359 11.0685L18.7232 12.7958C18.9656 12.9063 19.2475 12.8859 19.4716 12.7419C19.6956 12.5978 19.8311 12.3497 19.8311 12.0833V12.0833V11.4399C22.3283 12.9993 24.1537 16.0295 25.3908 20.6538V20.6538C25.9456 22.7274 26.3416 26.7011 26.4956 28.4339H3.50367V28.4338Z"
          fill="currentColor"/>
    <path d="M10.3083 13.7769C10.2715 13.7409 10.2315 13.708 10.1893 13.6798C10.1462 13.6516 10.1008 13.6274 10.0538 13.6078C10.0068 13.5882 9.95749 13.5734 9.90739 13.5632C9.80638 13.5428 9.70226 13.5428 9.60124 13.5632C9.55114 13.5734 9.50181 13.5882 9.45481 13.6078C9.40706 13.6274 9.36165 13.6516 9.31935 13.6798C9.27628 13.708 9.23638 13.7409 9.20034 13.7769C9.16431 13.8129 9.13144 13.8536 9.10325 13.8959C9.07507 13.939 9.05081 13.9844 9.03124 14.0314C9.01167 14.0784 8.99679 14.1276 8.98659 14.1778C8.9764 14.2286 8.97095 14.2796 8.97095 14.3305C8.97095 14.3821 8.97645 14.4331 8.98659 14.484C8.99679 14.5341 9.01167 14.5826 9.03124 14.6303C9.05081 14.6774 9.07507 14.7228 9.10325 14.7651C9.13144 14.8082 9.16431 14.8481 9.20034 14.8841C9.23638 14.921 9.27628 14.953 9.31935 14.982C9.36165 15.0101 9.40706 15.0344 9.45481 15.054C9.50181 15.0735 9.55114 15.0884 9.60124 15.0986C9.65134 15.1088 9.70302 15.1135 9.75394 15.1135C9.80561 15.1135 9.85653 15.1087 9.90739 15.0986C9.95749 15.0884 10.0068 15.0735 10.0538 15.054C10.1008 15.0344 10.1462 15.0101 10.1893 14.982C10.2316 14.953 10.2715 14.921 10.3083 14.8841C10.3443 14.8481 10.3764 14.8082 10.4054 14.7651C10.4336 14.7228 10.4578 14.6774 10.4774 14.6303C10.497 14.5826 10.5118 14.5341 10.522 14.484C10.5322 14.433 10.5369 14.3821 10.5369 14.3305C10.5369 14.1245 10.4539 13.9233 10.3083 13.7769Z"
          fill="currentColor"/>
    <path d="M8.58921 15.8748C8.207 15.6725 7.73315 15.8185 7.53089 16.2007C7.46099 16.3329 7.39097 16.4699 7.323 16.6079C6.71702 17.8369 6.18312 19.3076 5.73593 20.9789C5.36907 22.3501 5.06983 24.6793 4.88333 26.3917C4.83651 26.8216 5.14712 27.2081 5.57696 27.2548C5.60579 27.2579 5.63433 27.2595 5.66269 27.2595C6.05708 27.2595 6.39646 26.9623 6.44011 26.5611C6.62069 24.9031 6.90745 22.6589 7.24864 21.3837C7.66935 19.8113 8.16692 18.4374 8.72749 17.3003C8.78896 17.1756 8.852 17.0521 8.91511 16.9331C9.11737 16.5509 8.97142 16.077 8.58921 15.8748Z"
          fill="currentColor"/>
</svg>
