<svg width="30" height="30" viewBox="0 0 30 30" fill="none" xmlns="http://www.w3.org/2000/svg">
    <g clip-path="url(#clip0_416_168)">
        <path d="M29.0214 0H15.1828C14.3145 0 13.8749 1.05439 14.491 1.67045L16.5668 3.74625C16.3737 3.93926 0.668818 19.6441 0.286611 20.0264C-0.0955371 20.4085 -0.0955371 21.0281 0.286611 21.4103C0.477686 21.6013 0.728057 21.6969 0.978486 21.6969C1.22892 21.6969 1.47935 21.6013 1.67036 21.4103L5.49577 17.5849L6.8797 18.9688L6.18776 19.6607C5.26239 20.5862 4.6969 21.7262 4.59548 22.8709C4.48438 24.1248 4.93397 25.3262 5.86157 26.2537C6.2436 26.6359 6.86317 26.636 7.24544 26.2537C7.62753 25.8717 7.62759 25.2521 7.24544 24.8699C6.03694 23.6613 6.53839 22.0777 7.57163 21.0445L8.26356 20.3525L12.4152 24.5041C13.1799 25.2689 14.418 25.269 15.1828 24.5041L26.2537 13.4332L28.3295 15.509C28.9429 16.1226 30 15.6901 30 14.8171V0.978516C30 0.438106 29.5619 0 29.0214 0ZM6.87964 16.201L9.21976 13.8609L11.5598 20.8812L6.87964 16.201ZM14.2271 22.694L10.767 12.3138L13.0254 10.0554L16.4853 20.4354L14.2271 22.694ZM18.0325 18.8879L14.5726 8.50816L17.1769 5.90379L20.6367 16.2833L18.0325 18.8879ZM22.1839 14.7359L19.4977 6.67734L24.8699 12.0496L22.1839 14.7359ZM28.0429 12.4548C27.5015 11.9134 17.9819 2.39385 17.5452 1.95709H28.0429V12.4548Z"
              fill="currentColor"/>
        <path d="M10.705 24.1779C10.3229 23.7958 9.70329 23.7958 9.32114 24.1779L8.62926 24.8698C8.24711 25.2519 8.24711 25.8715 8.62926 26.2537C9.01147 26.6359 9.63104 26.6358 10.0131 26.2537L10.705 25.5618C11.0872 25.1797 11.0872 24.5601 10.705 24.1779Z"
              fill="currentColor"/>
        <path d="M7.24541 27.6377C6.86332 27.2556 6.24369 27.2556 5.86154 27.6377L5.16967 28.3296C4.78752 28.7117 4.78752 29.3313 5.16967 29.7134C5.55187 30.0956 6.17145 30.0955 6.55354 29.7134L7.24541 29.0216C7.62756 28.6395 7.62756 28.0199 7.24541 27.6377Z"
              fill="currentColor"/>
        <path d="M10.705 28.3295L10.0132 27.6376C9.63108 27.2556 9.01146 27.2556 8.62931 27.6376C8.2471 28.0198 8.2471 28.6394 8.62931 29.0215L9.32118 29.7134C9.70333 30.0955 10.3229 30.0955 10.705 29.7134C11.0872 29.3313 11.0872 28.7117 10.705 28.3295Z"
              fill="currentColor"/>
    </g>
    <defs>
        <clipPath id="clip0_416_168">
            <rect width="30" height="30" fill="white"/>
        </clipPath>
    </defs>
</svg>
